<?xml version="1.0" encoding="UTF-8"?>
<!DOCTYPE svg PUBLIC "-//W3C//DTD SVG 1.1//EN" "http://www.w3.org/Graphics/SVG/1.1/DTD/svg11.dtd">
<!-- Creator: CorelDRAW X6 -->
<svg xmlns="http://www.w3.org/2000/svg" xml:space="preserve" width="8.5in" height="11in" version="1.1" style="shape-rendering:geometricPrecision; text-rendering:geometricPrecision; image-rendering:optimizeQuality; fill-rule:evenodd; clip-rule:evenodd"
viewBox="0 0 8500 11000"
 xmlns:xlink="http://www.w3.org/1999/xlink">
 <defs>
  <style type="text/css">
   <![CDATA[
    .fil0 {fill:black}
    .fil1 {fill:#B0B0B0}
    .fil2 {fill:red}
   ]]>
  </style>
 </defs>
 <g id="Layer_x0020_1">
  <metadata id="CorelCorpID_0Corel-Layer"/>
  <g id="_1269758400">
   <g>
    <path class="fil0" d="M5427 6223c-14,-55 -96,-56 -135,-51 -110,12 -232,82 -300,169 -84,106 -73,202 84,187 109,-11 234,-83 302,-169 30,-38 61,-93 50,-136zm933 -1184c-30,-63 -97,-42 -150,-4 -49,34 -88,82 -114,125 -47,78 -96,211 -57,296 30,66 99,42 153,4 66,-47 118,-124 147,-194 17,-41 13,-38 24,-71 10,-30 18,-111 -4,-156zm-2872 1611c69,86 201,116 280,122 48,3 108,0 161,-20 69,-26 107,-71 58,-135 -85,-110 -308,-151 -439,-103 -70,25 -111,73 -60,136zm-1288 -625c48,70 113,124 185,161 25,13 44,19 69,26 159,43 179,-72 88,-204 -124,-179 -365,-251 -392,-146 -12,47 15,113 49,164zm403 -160c27,-29 43,-54 82,-95 78,-81 194,-157 300,-201 20,-8 52,-19 68,-28l-58 -28c-20,-10 -37,-21 -57,-34 -38,-25 -73,-59 -106,-96l-51 110c-60,115 -145,224 -253,305 8,9 26,24 36,32 13,12 24,27 38,36zm3854 -2321c-26,-56 -66,-112 -109,-149 -231,-197 -234,234 -25,411 120,101 188,36 178,-101 -4,-52 -19,-107 -44,-161zm-3262 1872c-3,-123 -237,-257 -300,-213 -7,112 234,261 300,213zm1981 -1900c4,-88 -109,-195 -188,-229 -14,-6 -72,-28 -89,-13 -16,15 19,81 33,102 20,29 47,57 73,78 35,28 127,88 171,62zm-3575 1073c-50,15 -70,102 -73,130 -14,106 7,227 71,322 86,128 176,114 205,-47 18,-98 -12,-234 -72,-323 -33,-49 -82,-96 -131,-81zm1051 -743c-33,-3 -75,78 -82,96 -30,67 -46,156 -39,231 2,22 17,116 49,120 33,4 75,-78 82,-94 31,-69 46,-153 39,-231 -2,-24 -16,-119 -50,-121zm-238 131c-19,0 -34,-2 -51,-19 -26,-27 -56,-73 -109,-122 -8,-8 -15,-15 -24,-17 -1,20 -19,89 -22,119l-16 120c-9,103 -8,139 -6,246 1,57 8,111 16,168 46,-31 92,-68 132,-107 10,-10 27,-31 39,-37 36,-21 28,-10 55,-14 -42,-115 -39,-186 -22,-298 2,-14 8,-26 8,-39zm2808 -1812c-64,23 -45,95 -16,148 74,131 284,254 405,210 66,-24 48,-94 18,-149 -30,-53 -77,-99 -119,-130 -73,-53 -199,-111 -287,-79zm-3459 933c-95,30 -165,175 -183,262 -1,6 -3,11 -5,18 -19,87 -10,277 101,239 107,-36 171,-203 183,-262 9,-45 18,-95 9,-153 -10,-63 -39,-125 -105,-104zm1101 -493c57,99 90,200 108,303 8,42 23,109 10,139 -18,45 -89,66 -125,3 -4,-6 -21,-144 -31,-179 -68,42 -210,197 -257,257 -36,45 -67,88 -99,137 -16,24 -29,47 -44,70 -8,14 -35,58 -38,71 10,-1 20,1 30,1 34,1 63,2 98,-2 52,-6 98,-21 129,31 20,35 1,73 -32,91 -22,13 -139,15 -167,15 -87,-1 -159,-10 -239,-31 -12,-3 -28,-4 -39,-9 -12,-5 -26,-9 -39,-14 -38,-12 -75,-30 -110,-48 -12,-6 -26,-17 -38,-19 -3,7 -5,13 -7,22 -7,24 -19,45 -27,69 22,13 53,18 77,26 42,14 88,34 129,57l5 -6c3,18 19,21 33,30 89,56 213,157 266,241 42,-62 55,-94 125,-134 35,-20 88,-20 112,-11 140,52 132,231 144,246 6,7 38,19 48,23 17,8 32,10 50,18 13,6 13,3 26,5 8,1 17,4 26,6 130,27 242,-30 280,-25 60,7 82,93 30,122 -60,34 -184,47 -252,45 -58,-2 -109,-12 -164,-27 -13,-4 -42,-19 -54,-18 -1,19 -7,38 -10,55 8,4 64,14 84,20 39,13 77,30 113,50 64,37 127,86 179,140 17,18 42,42 45,69 5,52 -50,95 -98,69 -18,-10 -34,-32 -49,-48 -74,-77 -165,-135 -267,-158 -18,-4 -42,-5 -59,-11 -40,50 -61,97 -130,122 -30,11 -58,12 -82,7 -40,-9 -51,-28 -72,-35 -3,26 -17,38 -40,61 -20,20 -38,35 -61,55 -45,39 -95,75 -148,105l-2 1c-114,65 -205,88 -320,110l26 100c171,-78 338,-93 510,-69 25,3 95,13 117,22 50,20 64,86 15,121 -30,22 -64,7 -87,2 -29,-6 -148,-28 -173,-18 28,83 106,223 156,296 29,42 158,223 195,242 17,-25 27,-56 38,-84l22 -64c7,-26 8,-44 28,-64 11,-12 7,-30 12,-45 34,-101 151,-116 240,-91 16,4 24,-11 34,-22 10,-12 21,-24 30,-37 24,-35 37,-61 51,-95 3,-7 4,-11 7,-19 36,-94 -1,-172 67,-202 33,-14 67,2 85,34 20,34 -3,123 -11,162 -4,20 -9,33 -15,53 -12,44 -44,106 -73,146 -12,16 -23,31 -37,46l24 17c12,-13 27,-42 39,-58 49,-64 111,-116 184,-158 50,-29 133,-85 173,-15 22,39 4,76 -32,96 -11,7 -33,14 -45,20 -44,21 -90,53 -124,86 -34,33 -64,73 -86,115 -12,23 -4,18 23,65 46,80 39,187 -43,234 -18,11 -34,12 -51,19 0,9 4,21 4,31 0,37 -28,58 -62,68 -40,11 -97,28 -134,49 26,25 176,97 216,113 7,3 11,4 17,8 27,13 58,23 86,34 21,8 226,72 230,62 1,-4 1,0 0,-6 0,-3 -1,-4 -1,-6 -9,-34 -23,-66 -37,-99 -9,-20 -16,-34 -13,-54 9,-57 82,-84 120,-35 42,56 81,226 90,290 16,108 13,245 -19,349l103 15c-7,-80 6,-167 24,-241 3,-15 7,-22 11,-38 13,-68 127,-302 172,-328l12 -7c48,-28 106,25 94,77 -6,23 -34,57 -48,79 -7,11 -17,23 -21,35 -2,5 -1,1 -1,6 38,-7 96,-10 139,-16 100,-16 196,-36 290,-71 27,-10 135,-47 151,-61 -26,-20 -80,-53 -94,-77 -29,-50 27,-113 86,-92 35,12 113,80 141,105 121,106 208,235 261,387l88 -49c-61,-94 -96,-163 -128,-275 -29,-103 -43,-224 -34,-327 2,-26 14,-54 48,-64 25,-7 60,0 73,23 22,38 10,39 14,75 26,-19 60,-55 83,-78 26,-27 49,-51 75,-81 23,-27 45,-54 67,-83 10,-13 57,-75 59,-85 -37,-7 -62,19 -97,-24 -26,-32 -19,-77 25,-103 41,-24 230,-10 291,0 47,8 93,18 137,33 46,16 89,32 133,56 21,11 54,28 72,42 17,-21 26,-66 47,-91 -19,-12 -47,-17 -68,-25 -147,-57 -278,-153 -381,-277 -18,-22 -43,-49 -57,-73 -34,-60 22,-117 84,-97 19,6 33,25 46,45 5,-7 4,-6 6,-15l26 -117c1,-7 0,-8 2,-15 14,-71 35,-276 26,-342 -14,-1 -25,6 -43,1 -51,-13 -66,-70 -34,-111 101,-133 264,-251 426,-307 16,-5 91,-26 95,-30l-41 -93c-118,63 -233,100 -351,111 -79,7 -164,8 -240,-4 -36,-6 -58,-6 -79,-44 -14,-24 -2,-68 22,-82 52,-30 90,6 140,-4 -9,-16 -15,-38 -23,-57 -49,-120 -113,-237 -188,-343 -20,-28 -46,-67 -70,-92 -15,54 22,100 -46,139 -10,6 -23,3 -32,7 26,22 58,69 76,99 24,43 41,97 39,140 -2,32 -18,92 -59,116 -46,27 -73,33 -127,28 -18,-2 -77,-17 -92,-27 -87,52 -141,169 -165,255 -5,19 -5,36 -11,57 -13,46 -66,63 -102,40 -20,-12 -31,-35 -32,-57 -1,-13 3,-17 4,-28 7,-49 22,-93 42,-141 27,-65 76,-148 142,-203l-22 -21c-72,96 -180,173 -299,210 -17,5 -41,13 -58,12 -66,-4 -89,-103 -21,-131 34,-14 76,-20 112,-40l53 -30c33,-19 122,-109 124,-138 -57,-99 -56,-230 63,-270 126,-43 249,64 274,73 -13,-60 17,-217 32,-279l24 -77c14,-38 30,-76 48,-112 19,-36 60,-108 91,-140l-85 -55c-7,21 -18,41 -29,62 -81,164 -221,303 -383,397 -66,38 -134,-30 -97,-92 16,-27 136,-85 174,-130 -64,-41 -126,-81 -194,-116 -65,-34 -133,-62 -202,-88l-84 -28c-49,-13 -123,-40 -171,-42 8,14 13,31 20,47 6,13 17,34 22,49 22,68 -68,119 -116,65 -39,-45 -89,-230 -100,-285 -8,-45 -10,-89 -15,-133 -2,-17 0,-29 -1,-45l6 -84c2,-15 13,-77 11,-85l-98 -4c-1,7 2,104 -4,165 -11,103 -46,214 -95,311 -16,31 -65,129 -97,148 -44,25 -101,-7 -101,-61 0,-37 45,-76 56,-109 2,-5 1,-3 1,-5 -16,-1 -44,4 -62,6 -22,3 -40,6 -63,10 -40,6 -85,17 -128,27 -42,10 -87,24 -131,39 -40,13 -111,36 -145,58 19,12 39,25 57,35 22,12 40,20 62,31 83,43 28,165 -67,119 -44,-21 -87,-46 -128,-73 -21,-14 -42,-29 -62,-45 -87,-69 -166,-154 -228,-262l-26 -48 -86 57c26,41 64,68 118,163zm1030 -931c-215,87 -61,239 184,236 50,-1 110,-10 162,-32 55,-23 121,-70 96,-125 -30,-66 -137,-96 -203,-106 -77,-11 -163,-4 -240,28zm-1275 381c-112,48 -217,147 -232,234 -21,122 165,94 254,55 195,-85 340,-313 136,-323 -49,-2 -104,12 -158,34zm3921 1357l27 47c0,0 28,63 30,70 30,74 49,184 35,260 -1,6 -2,9 -3,15 -2,8 -1,8 -2,15 -2,12 -7,19 -11,30 -47,143 -205,178 -326,98 -61,-40 -102,-87 -103,-88 -8,-5 -13,-1 -32,3 -11,2 -23,5 -33,8 -75,19 -143,46 -213,88 -21,13 -116,77 -119,94l7 128c0,45 -1,84 -2,126l-39 305c-15,64 -32,117 -48,179 39,50 177,131 245,155l88 28c31,9 21,4 56,-26 193,-165 430,-93 408,209 -3,37 -16,85 -27,119 -50,159 -227,382 -417,351 -32,-5 -59,-17 -87,-39 -58,-45 -83,-126 -84,-197 0,-18 -1,-50 4,-63 -14,-17 -68,-46 -87,-57 -54,-32 -105,-46 -160,-65 -11,-4 -104,-25 -120,-21 -10,21 -27,44 -41,65 -51,77 -82,117 -144,191 -55,66 -113,122 -177,180 -14,13 -62,49 -69,59 -3,31 33,140 49,177 17,41 76,151 105,177 11,6 188,-40 279,88 57,81 37,172 -4,251 -61,119 -194,194 -197,199l-36 21c-7,1 -47,22 -57,26 -55,23 -109,36 -167,40 -71,5 -138,-9 -194,-52 -69,-53 -80,-141 -66,-205 23,-104 98,-171 101,-181 3,-26 -49,-133 -64,-166 -24,-53 -74,-110 -107,-150 -92,53 -288,114 -388,138 -116,28 -166,31 -274,43 -24,3 -76,2 -92,7 -8,6 -31,114 -33,134 -10,79 -9,101 -6,178 1,16 8,15 21,22 21,11 41,25 61,40 253,192 72,481 -304,433 -8,-1 -11,-1 -17,-2 -7,-1 -10,-1 -17,-3l-100 -26c-83,-27 -197,-95 -237,-182 -29,-62 -30,-99 -17,-149 11,-42 44,-88 90,-118 40,-26 77,-40 121,-51 29,-7 24,-39 37,-93 3,-13 3,-20 5,-34 7,-37 13,-145 4,-178 -14,-3 -28,-6 -46,-9 -38,-6 -198,-50 -230,-63 -15,-6 -70,-23 -91,-32 -14,-6 -29,-13 -44,-19 -79,-31 -185,-90 -259,-136 -14,-9 -29,-20 -43,-27 -45,23 -122,105 -156,148 -14,18 -26,37 -40,54 20,53 33,65 42,128 21,145 -73,244 -214,245 -47,0 -123,-17 -165,-37 -97,-47 -175,-103 -245,-196 -80,-106 -133,-254 -53,-364 42,-58 109,-79 179,-81 18,-1 40,3 57,5 49,6 75,22 110,35 13,5 43,-23 56,-34 18,-14 37,-30 53,-46 27,-25 66,-67 85,-96 -16,-20 -42,-45 -60,-64 -55,-61 -133,-157 -175,-227 -34,-57 -77,-118 -105,-180 -14,-30 -29,-59 -42,-89 -12,-28 -25,-66 -38,-90 -18,4 -36,7 -54,12 -19,5 -37,10 -57,16 -35,11 -84,30 -117,50l-12 79c-22,85 -61,169 -156,204 -170,63 -292,-142 -295,-144l-23 -41c0,-3 -25,-58 -29,-67 -8,-22 -15,-43 -20,-66 -22,-88 -24,-159 -11,-244 31,-197 194,-310 355,-193 31,22 70,62 92,100 19,-4 36,-4 57,-7 20,-3 39,-7 58,-11 37,-9 80,-22 116,-37 0,-11 -6,-40 -7,-54 -7,-52 -15,-106 -16,-158 -7,-208 1,-261 29,-454 5,-32 30,-124 33,-143 -25,-20 -86,-44 -119,-57 -42,-16 -112,-33 -122,-37 -13,9 -29,30 -42,42 -205,183 -408,37 -398,-230 1,-19 3,-32 4,-51l7 -49c4,-32 32,-112 47,-143 166,-348 495,-313 515,20l2 52c8,12 118,67 145,77 13,5 17,8 30,12 22,7 41,11 62,18l48 -87c132,-225 272,-395 487,-561 -26,-51 -45,-88 -78,-134 -17,-23 -70,-89 -89,-101 -6,-3 -41,6 -56,8 -19,3 -35,4 -54,5 -128,9 -261,-71 -252,-220l7 -49c6,-25 29,-70 41,-92 25,-43 72,-93 111,-125 6,-5 46,-35 47,-37l88 -50c2,0 47,-19 54,-21 18,-7 35,-12 53,-17 47,-13 123,-22 171,-12 38,8 22,0 67,19 119,49 149,177 95,295 -7,16 -13,27 -22,43 -8,14 -20,27 -27,39 1,23 58,116 76,140 14,19 30,40 46,59 15,18 31,33 47,49 40,-23 145,-64 189,-80 61,-22 118,-39 180,-55 56,-14 116,-26 175,-35l172 -20 21 -88c2,-11 4,-17 6,-29 9,-46 12,-137 7,-185 -4,-40 3,-33 -30,-47 -34,-15 -76,-44 -103,-71 -78,-80 -80,-179 -37,-247 52,-84 146,-131 239,-153 164,-39 356,-10 472,86 152,127 89,307 -87,386 -23,10 -47,16 -68,26 -10,10 -22,100 -26,126 -8,60 -6,158 8,219l207 45c12,3 14,5 25,9 8,3 17,5 25,7 45,12 159,55 198,73 18,9 30,14 48,22 95,47 148,75 237,133 15,10 31,23 47,31 33,-26 88,-135 107,-176 6,-12 7,-19 11,-30l12 -30c-19,-33 -42,-48 -70,-115 -43,-101 -37,-226 76,-287 52,-28 107,-33 162,-29 10,1 16,1 25,3 64,12 61,11 120,33 94,35 192,112 254,189 54,67 88,148 86,221 -2,120 -94,193 -225,199 -49,2 -63,-6 -99,-10 -34,33 -80,103 -101,143 -7,14 -65,136 -62,151 10,18 45,54 59,70 105,125 196,274 264,421 25,54 54,122 70,176 63,-10 99,-13 162,-35 27,-9 158,-61 172,-82 6,-9 3,2 2,-23 0,-8 0,-15 0,-23 1,-110 65,-237 190,-245 116,-8 216,70 283,158 7,10 26,40 33,45z"/>
    <path class="fil0" d="M5205 4641c59,-26 66,-162 62,-220 -3,-40 -10,-81 -25,-123 -11,-31 -49,-113 -81,-108 -31,5 -50,88 -53,101 -22,92 5,309 96,350zm-219 -412c11,-28 4,-25 25,-66 25,-50 63,-91 119,-105 81,-20 147,31 195,100 34,49 55,117 66,168 23,113 16,191 -12,295 -26,98 -123,191 -234,141 -64,-29 -107,-92 -135,-162 -10,-24 -4,-21 -25,-26 -44,-11 -100,-14 -147,-9 -26,3 -49,7 -78,14 -30,8 -53,17 -83,31 -38,17 -74,51 -107,51 -35,1 -63,-25 -69,-58 -8,-47 33,-72 72,-92 89,-46 148,-68 246,-80 39,-5 93,-6 131,0 6,1 11,2 19,1l-2 -60c-31,8 -112,4 -137,0 -21,-3 -43,-9 -65,-13 -38,-8 -92,-27 -126,-44 -19,-9 -45,-20 -62,-30 -40,-24 -103,-55 -92,-105 9,-41 41,-66 82,-59 10,2 19,8 31,16 21,14 40,25 59,36 59,32 123,57 191,64 31,3 103,7 140,-4z"/>
    <path class="fil0" d="M3856 2917c-29,13 -47,25 -30,49 31,46 114,72 159,83 58,15 166,26 244,-9 11,-5 26,-13 33,-21 46,-51 -227,-182 -406,-103zm469 224l-35 20c-16,9 -65,21 -71,26 -7,8 -11,97 -10,115 5,94 29,169 79,255 17,29 40,58 21,93 -18,35 -59,50 -92,32 -63,-34 -123,-236 -133,-283 -23,-116 -5,-184 -8,-199 -11,-1 -18,-1 -29,-3 -11,-1 -18,-4 -31,-2 7,28 4,96 2,121l-9 58c-12,57 -32,114 -59,165 -23,44 -43,90 -81,112 -44,25 -109,-23 -93,-81 4,-16 16,-29 24,-42 36,-58 32,-56 54,-106 10,-23 15,-45 21,-70 5,-23 10,-71 9,-95 -5,-139 -1,-80 -97,-144 -146,-97 -146,-259 32,-327 43,-17 102,-27 145,-27 116,-1 220,18 321,79 66,40 124,109 115,186 -3,24 -6,38 -22,62 -10,17 -36,44 -55,55z"/>
    <path class="fil0" d="M4100 5425c-33,14 -99,53 -105,84 -7,34 80,48 95,50 67,9 163,-3 242,-38 34,-15 98,-53 106,-84 8,-33 -80,-48 -95,-50 -71,-10 -160,2 -243,38zm-120 -89c5,-10 0,-22 -2,-33 -2,-11 -5,-22 -8,-33 -24,-96 -81,-178 -151,-245 -33,-31 -100,-67 -63,-130 5,-8 14,-17 24,-23 47,-27 80,9 113,37 31,27 66,64 94,100 70,90 103,171 125,267 19,-6 39,-10 58,-15 -21,-54 -37,-90 -45,-143 -20,-129 -10,-146 5,-256 6,-44 22,-95 72,-101 47,-5 85,39 71,89 -3,11 -5,20 -8,31 -3,13 -3,18 -5,30 -23,113 -6,222 57,337 35,6 36,0 86,12 61,15 115,39 150,94 22,34 26,86 17,116 -6,22 -16,38 -29,58 -18,27 -42,49 -70,69 -61,43 -127,67 -193,83 -89,21 -182,22 -265,1 -11,-3 -12,-4 -21,-8 -50,-22 -97,-42 -123,-106 -13,-31 -12,-65 -6,-89 13,-50 56,-107 117,-143z"/>
    <path class="fil0" d="M3898 4038c-94,44 -202,143 -228,237 -42,148 114,132 219,82 116,-55 199,-150 230,-239 5,-16 12,-52 1,-75 -32,-73 -167,-30 -222,-4zm116 403c-77,44 -150,81 -243,85 -24,1 -38,0 -60,-2 -68,-6 -160,-57 -180,-155 -25,-121 48,-239 127,-322 104,-109 269,-195 423,-178 71,8 156,59 177,161 15,77 -16,162 -54,223 -38,61 -116,146 -190,188z"/>
   </g>
   <g>
    <path class="fil1" d="M3980 5336c-62,36 -104,92 -117,143 -6,24 -7,58 6,89 26,64 73,84 123,106 9,4 11,5 21,8 83,22 176,20 265,-1 66,-15 132,-40 193,-83 28,-20 52,-42 70,-69 13,-20 23,-37 29,-58 9,-30 5,-81 -17,-116 -35,-56 -89,-79 -150,-94 -50,-12 -51,-6 -86,-12 -63,-114 -80,-224 -57,-337 2,-12 2,-17 5,-30 3,-11 5,-20 8,-31 13,-50 -24,-94 -71,-89 -51,5 -66,57 -72,101 -15,110 -24,127 -5,256 8,52 24,89 45,143 -19,4 -38,8 -58,15 -22,-96 -54,-178 -125,-267 -28,-36 -63,-73 -94,-100 -32,-28 -65,-64 -113,-37 -11,6 -19,15 -24,23 -38,63 30,99 63,130 70,67 127,148 151,245 3,11 5,22 8,33 2,11 7,23 2,33zm1005 -1107c-37,12 -109,8 -140,4 -68,-7 -132,-32 -191,-64 -19,-10 -38,-22 -59,-36 -12,-8 -20,-14 -31,-16 -41,-7 -73,18 -82,59 -11,50 52,81 92,105 17,10 43,22 62,30 34,17 89,36 126,44 21,4 43,10 65,13 25,4 106,9 137,0l2 60c-8,1 -12,0 -19,-1 -38,-6 -92,-5 -131,0 -99,13 -158,34 -246,80 -39,20 -80,46 -72,92 6,33 34,59 69,58 33,-1 69,-34 107,-51 30,-14 53,-23 83,-31 29,-8 51,-12 78,-14 47,-5 103,-2 147,9 20,5 15,2 25,26 27,70 71,133 135,162 111,51 208,-43 234,-141 28,-104 35,-182 12,-295 -10,-51 -32,-118 -66,-168 -47,-69 -114,-121 -195,-100 -55,14 -94,56 -119,105 -21,41 -14,38 -25,66zm-971 212c74,-42 151,-127 190,-188 38,-61 70,-146 54,-223 -20,-102 -106,-153 -177,-161 -153,-17 -319,69 -423,178 -79,83 -152,201 -127,322 20,98 112,149 180,155 22,2 36,3 60,2 93,-4 166,-41 243,-85zm312 -1299c19,-11 44,-38 55,-55 15,-24 19,-38 22,-62 10,-78 -48,-147 -115,-186 -101,-61 -205,-80 -321,-79 -43,0 -103,11 -145,27 -178,68 -178,231 -32,327 96,64 92,4 97,144 1,24 -4,72 -9,95 -6,25 -11,47 -21,70 -22,51 -18,49 -54,106 -8,13 -20,27 -24,42 -15,58 50,106 93,81 38,-22 58,-67 81,-112 27,-51 47,-108 59,-165l9 -58c3,-25 6,-93 -2,-121 13,-2 19,1 31,2 11,1 18,1 29,3 3,15 -15,83 8,199 9,47 70,249 133,283 34,18 74,3 92,-32 19,-36 -4,-64 -21,-93 -49,-86 -73,-160 -79,-255 -1,-17 3,-106 10,-115 7,-5 55,-16 71,-26l35 -20zm-1461 -533c-54,-94 -92,-122 -118,-163l86 -57 26 48c62,108 141,193 228,262 20,16 41,31 62,45 41,27 85,52 128,73 96,47 150,-76 67,-119 -21,-11 -40,-19 -62,-31 -18,-10 -39,-23 -57,-35 34,-22 105,-44 145,-58 44,-15 89,-29 131,-39 43,-10 88,-21 128,-27 22,-3 41,-7 63,-10 18,-2 46,-7 62,-6 0,3 0,0 -1,5 -11,33 -56,72 -56,109 0,54 56,86 101,61 33,-19 82,-117 97,-148 49,-97 84,-208 95,-311 6,-61 3,-158 4,-165l98 4c2,8 -9,70 -11,85l-6 84c0,16 -1,28 1,45 5,44 6,88 15,133 10,55 61,240 100,285 48,55 138,3 116,-65 -5,-15 -16,-35 -22,-49 -7,-16 -12,-33 -20,-47 49,2 122,28 171,42l84 28c69,26 137,54 202,88 67,36 129,75 194,116 -38,45 -158,103 -174,130 -37,62 31,130 97,92 162,-93 302,-232 383,-397 10,-21 22,-41 29,-62l85 55c-31,33 -73,104 -91,140 -19,36 -34,73 -48,112l-24 77c-15,62 -45,219 -32,279 -25,-9 -148,-116 -274,-73 -118,40 -119,172 -63,270 -2,29 -91,119 -124,138l-53 30c-36,21 -78,26 -112,40 -67,28 -44,126 21,131 17,1 41,-7 58,-12 119,-37 227,-114 299,-210l22 21c-65,55 -115,138 -142,203 -20,47 -35,92 -42,141 -2,11 -5,15 -4,28 1,22 12,45 32,57 37,23 89,6 102,-40 6,-21 6,-38 11,-57 24,-86 78,-203 165,-255 15,11 74,26 92,27 54,5 81,-1 127,-28 41,-24 58,-84 59,-116 2,-44 -15,-98 -39,-140 -18,-31 -50,-78 -76,-99 9,-3 22,-1 32,-7 67,-39 30,-84 46,-139 24,25 50,64 70,92 76,106 139,223 188,343 8,20 14,41 23,57 -51,9 -88,-27 -140,4 -25,14 -36,58 -22,82 22,38 43,38 79,44 76,12 162,12 240,4 118,-11 233,-48 351,-111l41 93c-4,3 -80,24 -95,30 -161,56 -324,175 -426,307 -32,41 -17,98 34,111 18,5 29,-2 43,-1 9,65 -12,270 -26,342 -1,8 -1,8 -2,15l-26 117c-2,9 -1,8 -6,15 -13,-19 -27,-39 -46,-45 -61,-19 -118,37 -84,97 14,24 39,51 57,73 103,123 234,220 381,277 21,8 49,13 68,25 -21,25 -30,69 -47,91 -18,-15 -51,-31 -72,-42 -44,-24 -87,-40 -133,-56 -44,-15 -91,-25 -137,-33 -62,-11 -250,-24 -291,0 -44,25 -51,71 -25,103 35,42 60,17 97,24 -2,10 -49,72 -59,85 -22,29 -43,56 -67,83 -26,30 -48,54 -75,81 -22,23 -57,60 -83,78 -3,-36 8,-37 -14,-75 -13,-23 -48,-31 -73,-23 -34,10 -46,38 -48,64 -9,103 5,224 34,327 32,112 67,182 128,275l-88 49c-53,-152 -140,-281 -261,-387 -28,-25 -106,-93 -141,-105 -60,-21 -115,42 -86,92 14,24 68,57 94,77 -16,14 -124,51 -151,61 -94,35 -190,55 -290,71 -43,7 -101,9 -139,16 1,-5 0,-1 1,-6 4,-12 14,-25 21,-35 14,-21 42,-56 48,-79 13,-51 -45,-104 -94,-77l-12 7c-45,26 -159,260 -172,328 -3,16 -7,24 -11,38 -18,74 -30,161 -24,241l-103 -15c32,-104 35,-241 19,-349 -10,-64 -48,-234 -90,-290 -38,-49 -110,-22 -120,35 -3,20 4,33 13,54 14,33 27,65 37,99 1,3 1,3 1,6 1,6 1,2 0,6 -4,9 -208,-54 -230,-62 -28,-10 -60,-21 -86,-34 -7,-3 -10,-5 -17,-8 -40,-16 -191,-89 -216,-113 37,-21 94,-37 134,-49 34,-10 62,-31 62,-68 0,-10 -5,-21 -4,-31 17,-6 32,-8 51,-19 82,-47 89,-154 43,-234 -27,-47 -34,-42 -23,-65 22,-42 51,-83 86,-115 34,-33 80,-64 124,-86 11,-5 33,-13 45,-20 35,-20 54,-57 32,-96 -40,-70 -123,-14 -173,15 -72,42 -135,95 -184,158 -13,16 -28,45 -39,58l-24 -17c14,-15 25,-30 37,-46 29,-40 61,-102 73,-146 5,-19 11,-33 15,-53 8,-39 31,-127 11,-162 -18,-31 -53,-48 -85,-34 -69,30 -31,107 -67,202 -3,8 -4,13 -7,19 -14,35 -27,61 -51,95 -9,13 -19,25 -30,37 -10,11 -18,27 -34,22 -89,-25 -206,-10 -240,91 -5,15 -1,34 -12,45 -20,21 -21,39 -28,64l-22 64c-11,28 -21,59 -38,84 -36,-19 -165,-199 -195,-242 -50,-73 -129,-213 -156,-296 25,-10 145,12 173,18 24,5 57,19 87,-2 49,-35 34,-101 -15,-121 -22,-9 -92,-18 -117,-22 -172,-24 -339,-9 -510,69l-26 -100c114,-21 206,-45 320,-110l2 -1c53,-30 104,-67 148,-105 23,-20 41,-35 61,-55 23,-23 37,-35 40,-61 21,7 31,26 72,35 24,5 52,4 82,-7 69,-25 90,-71 130,-122 17,6 41,7 59,11 102,23 193,81 267,158 15,16 31,38 49,48 48,26 103,-17 98,-69 -3,-27 -28,-51 -45,-69 -51,-54 -115,-103 -179,-140 -36,-21 -74,-37 -113,-50 -20,-7 -76,-16 -84,-20 3,-18 9,-36 10,-55 12,-1 41,14 54,18 55,15 106,25 164,27 68,2 192,-10 252,-45 52,-30 30,-115 -30,-122 -37,-4 -150,53 -280,25 -9,-2 -17,-5 -26,-6 -13,-2 -13,0 -26,-5 -18,-8 -32,-10 -50,-18 -10,-5 -42,-16 -48,-23 -13,-14 -5,-194 -144,-246 -24,-9 -78,-9 -112,11 -70,40 -83,72 -125,134 -54,-85 -178,-186 -266,-241 -14,-9 -30,-12 -33,-30l-5 6c-41,-23 -86,-44 -129,-57 -24,-8 -55,-13 -77,-26 8,-24 20,-45 27,-69 3,-9 4,-15 7,-22 12,2 26,13 38,19 35,18 72,36 110,48 13,4 27,8 39,14 10,4 26,6 39,9 80,21 152,30 239,31 28,0 146,-2 167,-15 33,-19 52,-56 32,-91 -30,-53 -77,-37 -129,-31 -35,4 -64,3 -98,2 -10,0 -21,-2 -30,-1 3,-12 30,-57 38,-71 14,-24 27,-46 44,-70 32,-48 63,-91 99,-137 48,-60 189,-215 257,-257 10,35 28,172 31,179 36,63 107,42 125,-3 12,-30 -3,-97 -10,-139 -19,-103 -51,-204 -108,-303z"/>
    <path class="fil2" d="M1764 3102c66,-21 95,41 105,104 9,58 1,108 -9,153 -12,59 -76,226 -183,262 -110,37 -119,-152 -101,-239 1,-7 3,-12 5,-18 19,-87 89,-232 183,-262z"/>
    <path class="fil2" d="M6458 3545c25,53 40,109 44,161 10,138 -58,203 -178,101 -209,-177 -206,-608 25,-411 43,37 83,92 109,149z"/>
    <path class="fil2" d="M3895 1677c77,-31 163,-38 240,-28 66,9 173,40 203,106 25,55 -41,102 -96,125 -53,22 -112,32 -162,32 -246,3 -399,-149 -184,-236z"/>
    <path class="fil2" d="M3489 6651c-51,-63 -10,-111 60,-136 131,-48 354,-6 439,103 49,64 11,109 -58,135 -53,20 -114,23 -161,20 -79,-6 -211,-36 -280,-122z"/>
    <path class="fil2" d="M5223 2168c88,-32 215,26 287,79 42,31 90,77 119,130 31,55 48,125 -18,149 -120,44 -331,-79 -405,-210 -30,-53 -48,-125 16,-148z"/>
    <path class="fil2" d="M5427 6223c11,43 -20,97 -50,136 -68,86 -193,158 -302,169 -157,15 -168,-81 -84,-187 69,-86 191,-157 300,-169 40,-4 121,-3 135,51z"/>
    <path class="fil2" d="M1603 4591c49,-15 99,33 131,81 60,89 89,225 72,323 -29,161 -119,176 -205,47 -64,-96 -85,-216 -71,-322 4,-28 23,-114 73,-130z"/>
    <path class="fil2" d="M6360 5040c21,45 13,126 4,156 -11,34 -7,31 -24,71 -29,70 -81,147 -147,194 -54,38 -123,62 -153,-4 -39,-85 9,-218 57,-296 26,-43 65,-91 114,-125 53,-37 120,-59 150,4z"/>
    <path class="fil2" d="M2201 6026c-35,-51 -62,-117 -49,-164 27,-105 268,-33 392,146 91,132 70,247 -88,204 -25,-7 -44,-13 -69,-26 -72,-36 -137,-91 -185,-161z"/>
    <path class="fil2" d="M3898 4038c55,-26 191,-69 222,4 10,24 4,60 -1,75 -31,89 -114,184 -230,239 -106,51 -261,66 -219,-82 26,-93 135,-192 228,-237z"/>
    <path class="fil2" d="M2620 2058c54,-23 109,-37 158,-34 204,10 59,238 -136,323 -90,39 -276,67 -254,-55 15,-87 120,-187 232,-234z"/>
    <path class="fil1" d="M2415 3980c-1,13 -6,25 -8,39 -16,112 -20,183 22,298 -27,4 -19,-6 -55,14 -11,6 -29,28 -39,37 -40,39 -86,76 -132,107 -8,-57 -15,-112 -16,-168 -3,-106 -4,-143 6,-246l16 -120c3,-29 21,-98 22,-119 9,2 16,9 24,17 53,50 83,96 109,122 17,17 32,19 51,19z"/>
    <path class="fil1" d="M2604 5866c-13,-8 -24,-24 -38,-36 -10,-9 -29,-24 -36,-32 108,-81 193,-189 253,-305l51 -110c32,38 68,72 106,96 20,13 37,24 57,34l58 28c-16,10 -48,20 -68,28 -106,44 -223,120 -300,201 -39,41 -56,66 -82,95z"/>
    <path class="fil2" d="M3856 2917c178,-79 452,52 406,103 -8,9 -22,17 -33,21 -78,35 -186,24 -244,9 -45,-12 -128,-37 -159,-83 -16,-24 2,-37 30,-49z"/>
    <path class="fil2" d="M2653 3849c33,3 48,97 50,121 6,78 -8,161 -39,231 -7,16 -50,98 -82,94 -32,-4 -47,-98 -49,-120 -8,-75 9,-164 39,-231 8,-17 49,-98 82,-96z"/>
    <path class="fil2" d="M5205 4641c-91,-41 -118,-258 -96,-350 3,-14 22,-97 53,-101 31,-5 70,78 81,108 15,42 21,83 25,123 4,58 -3,194 -62,220z"/>
    <path class="fil2" d="M4100 5425c83,-36 173,-47 243,-38 15,2 103,17 95,50 -8,32 -71,69 -106,84 -79,35 -174,47 -242,38 -15,-2 -102,-17 -95,-50 6,-31 72,-70 105,-84z"/>
    <path class="fil2" d="M3196 5418c-66,48 -307,-101 -300,-213 63,-43 297,91 300,213z"/>
    <path class="fil2" d="M5177 3518c-44,26 -135,-34 -171,-62 -25,-20 -52,-48 -73,-78 -15,-22 -49,-87 -33,-102 16,-15 74,7 89,13 79,33 192,140 188,229z"/>
   </g>
  </g>
 </g>
</svg>
